<?xml version="1.0" encoding="UTF-8" standalone="no"?>
<svg xmlns:svg="http://www.w3.org/2000/svg"
     xmlns="http://www.w3.org/2000/svg" version="1.1"
     width="360" height="185">
    <!-- Created with the Wikimedia parliament diagram creator (http://parliamentdiagram.toolforge.org/parliamentinputform.html) -->
    <g>
        <text x="180" y="175" 
              style="font-size:36px;font-weight:bold;text-align:center;text-anchor:middle;font-family:sans-serif">500</text>
        <g style="fill:#3A97FF; stroke-width:0.00; stroke:#000000" 
           id="0_Party-1"> 
            <title>Party 1</title>            <circle cx="9.20" cy="176.67" r="3.33"/> 
            <circle cx="17.53" cy="176.67" r="3.33"/> 
            <circle cx="25.87" cy="176.67" r="3.33"/> 
            <circle cx="34.20" cy="176.67" r="3.33"/> 
            <circle cx="42.54" cy="176.67" r="3.33"/> 
            <circle cx="50.88" cy="176.67" r="3.33"/> 
            <circle cx="59.21" cy="176.67" r="3.33"/> 
            <circle cx="67.55" cy="176.67" r="3.33"/> 
            <circle cx="75.89" cy="176.67" r="3.33"/> 
            <circle cx="84.22" cy="176.67" r="3.33"/> 
            <circle cx="92.56" cy="176.67" r="3.33"/> 
            <circle cx="100.90" cy="176.67" r="3.33"/> 
            <circle cx="9.63" cy="167.38" r="3.33"/> 
            <circle cx="18.01" cy="167.17" r="3.33"/> 
            <circle cx="26.37" cy="167.13" r="3.33"/> 
            <circle cx="34.72" cy="167.28" r="3.33"/> 
            <circle cx="43.09" cy="167.23" r="3.33"/> 
            <circle cx="51.47" cy="167.19" r="3.33"/> 
            <circle cx="59.85" cy="167.13" r="3.33"/> 
            <circle cx="68.25" cy="167.06" r="3.33"/> 
            <circle cx="76.61" cy="167.27" r="3.33"/> 
            <circle cx="10.57" cy="158.13" r="3.33"/> 
            <circle cx="85.02" cy="167.21" r="3.33"/> 
            <circle cx="19.03" cy="157.72" r="3.33"/> 
            <circle cx="27.46" cy="157.64" r="3.33"/> 
            <circle cx="93.45" cy="167.13" r="3.33"/> 
            <circle cx="35.84" cy="157.94" r="3.33"/> 
            <circle cx="44.29" cy="157.86" r="3.33"/> 
            <circle cx="101.90" cy="167.04" r="3.33"/> 
            <circle cx="52.76" cy="157.77" r="3.33"/> 
            <circle cx="12.01" cy="148.94" r="3.33"/> 
            <circle cx="61.25" cy="157.67" r="3.33"/> 
            <circle cx="20.61" cy="148.35" r="3.33"/> 
            <circle cx="69.76" cy="157.55" r="3.33"/> 
            <circle cx="29.14" cy="148.24" r="3.33"/> 
            <circle cx="78.19" cy="157.98" r="3.33"/> 
            <circle cx="37.57" cy="148.69" r="3.33"/> 
            <circle cx="46.13" cy="148.59" r="3.33"/> 
            <circle cx="86.76" cy="157.87" r="3.33"/> 
            <circle cx="13.95" cy="139.85" r="3.33"/> 
            <circle cx="54.74" cy="148.48" r="3.33"/> 
            <circle cx="22.73" cy="139.09" r="3.33"/> 
            <circle cx="95.37" cy="157.76" r="3.33"/> 
            <circle cx="63.38" cy="148.35" r="3.33"/> 
            <circle cx="31.40" cy="138.95" r="3.33"/> 
            <circle cx="39.88" cy="139.58" r="3.33"/> 
            <circle cx="72.09" cy="148.21" r="3.33"/> 
            <circle cx="104.06" cy="157.61" r="3.33"/> 
            <circle cx="16.38" cy="130.88" r="3.33"/> 
            <circle cx="48.61" cy="139.47" r="3.33"/> 
            <circle cx="80.60" cy="148.86" r="3.33"/> 
            <circle cx="25.40" cy="129.96" r="3.33"/> 
            <circle cx="57.39" cy="139.36" r="3.33"/> 
            <circle cx="34.22" cy="129.83" r="3.33"/> 
            <circle cx="89.40" cy="148.76" r="3.33"/> 
            <circle cx="66.25" cy="139.23" r="3.33"/> 
            <circle cx="42.78" cy="130.63" r="3.33"/> 
            <circle cx="19.30" cy="122.05" r="3.33"/> 
            <circle cx="98.31" cy="148.64" r="3.33"/> 
            <circle cx="51.70" cy="130.54" r="3.33"/> 
            <circle cx="28.59" cy="121.01" r="3.33"/> 
            <circle cx="75.20" cy="139.10" r="3.33"/> 
            <circle cx="37.61" cy="120.90" r="3.33"/> 
            <circle cx="60.71" cy="130.46" r="3.33"/> 
            <circle cx="83.82" cy="140.01" r="3.33"/> 
            <circle cx="22.69" cy="113.39" r="3.33"/> 
            <circle cx="107.36" cy="148.52" r="3.33"/> 
            <circle cx="46.24" cy="121.89" r="3.33"/> 
            <circle cx="69.83" cy="130.37" r="3.33"/> 
            <circle cx="32.29" cy="112.26" r="3.33"/> 
            <circle cx="92.94" cy="139.95" r="3.33"/> 
            <circle cx="55.40" cy="121.85" r="3.33"/> 
            <circle cx="26.54" cy="104.93" r="3.33"/> 
            <circle cx="41.54" cy="112.20" r="3.33"/> 
            <circle cx="79.08" cy="130.28" r="3.33"/> 
            <circle cx="64.68" cy="121.82" r="3.33"/> 
            <circle cx="50.27" cy="113.39" r="3.33"/> 
            <circle cx="102.23" cy="139.90" r="3.33"/> 
            <circle cx="87.83" cy="131.48" r="3.33"/> 
            <circle cx="36.51" cy="103.74" r="3.33"/> 
            <circle cx="74.10" cy="121.81" r="3.33"/> 
            <circle cx="59.69" cy="113.43" r="3.33"/> 
            <circle cx="30.86" cy="96.69" r="3.33"/> 
            <circle cx="46.01" cy="103.75" r="3.33"/> 
            <circle cx="97.33" cy="131.53" r="3.33"/> 
            <circle cx="111.75" cy="139.89" r="3.33"/> 
            <circle cx="54.83" cy="105.17" r="3.33"/> 
            <circle cx="69.27" cy="113.50" r="3.33"/> 
            <circle cx="83.70" cy="121.84" r="3.33"/> 
            <circle cx="41.21" cy="95.48" r="3.33"/> 
            <circle cx="35.61" cy="88.70" r="3.33"/> 
            <circle cx="64.55" cy="105.32" r="3.33"/> 
            <circle cx="92.59" cy="123.34" r="3.33"/> 
            <circle cx="50.99" cy="95.60" r="3.33"/> 
            <circle cx="79.03" cy="113.62" r="3.33"/> 
            <circle cx="107.07" cy="131.65" r="3.33"/> 
            <circle cx="59.91" cy="97.26" r="3.33"/> 
            <circle cx="46.39" cy="87.51" r="3.33"/> 
            <circle cx="74.45" cy="105.54" r="3.33"/> 
            <circle cx="40.79" cy="80.98" r="3.33"/> 
            <circle cx="89.03" cy="113.81" r="3.33"/> 
            <circle cx="102.53" cy="123.59" r="3.33"/> 
            <circle cx="56.46" cy="87.77" r="3.33"/> 
            <circle cx="69.95" cy="97.57" r="3.33"/> 
            <circle cx="117.15" cy="131.86" r="3.33"/> 
            <circle cx="84.59" cy="105.85" r="3.33"/> 
            <circle cx="52.03" cy="79.85" r="3.33"/> 
            <circle cx="98.07" cy="115.67" r="3.33"/> 
            <circle cx="65.50" cy="89.69" r="3.33"/> 
            <circle cx="46.38" cy="73.56" r="3.33"/> 
            <circle cx="80.21" cy="97.99" r="3.33"/> 
            <circle cx="112.79" cy="123.97" r="3.33"/> 
            <circle cx="62.41" cy="80.30" r="3.33"/> 
            <circle cx="75.87" cy="90.21" r="3.33"/> 
            <circle cx="95.02" cy="106.28" r="3.33"/> 
            <circle cx="58.10" cy="72.54" r="3.33"/> 
            <circle cx="52.37" cy="66.44" r="3.33"/> 
            <circle cx="108.49" cy="116.20" r="3.33"/> 
            <circle cx="71.56" cy="82.50" r="3.33"/> 
            <circle cx="90.75" cy="98.54" r="3.33"/> 
            <circle cx="104.22" cy="108.53" r="3.33"/> 
            <circle cx="86.51" cy="90.87" r="3.33"/> 
            <circle cx="68.81" cy="73.21" r="3.33"/> 
            <circle cx="123.49" cy="124.56" r="3.33"/> 
            <circle cx="82.28" cy="83.27" r="3.33"/> 
            <circle cx="64.59" cy="65.60" r="3.33"/> 
            <circle cx="58.74" cy="59.67" r="3.33"/> 
            <circle cx="78.07" cy="75.71" r="3.33"/> 
            <circle cx="101.64" cy="99.28" r="3.33"/> 
            <circle cx="119.32" cy="116.96" r="3.33"/> 
            <circle cx="97.47" cy="91.74" r="3.33"/> 
            <circle cx="75.64" cy="66.53" r="3.33"/> 
            <circle cx="115.15" cy="109.44" r="3.33"/> 
            <circle cx="93.31" cy="84.24" r="3.33"/> 
            <circle cx="65.46" cy="53.25" r="3.33"/> 
            <circle cx="71.48" cy="59.05" r="3.33"/> 
            <circle cx="110.99" cy="101.97" r="3.33"/> 
            <circle cx="89.16" cy="76.78" r="3.33"/> 
            <circle cx="85.00" cy="69.36" r="3.33"/> 
            <circle cx="108.83" cy="92.88" r="3.33"/> 
            <circle cx="82.86" cy="60.28" r="3.33"/> 
            <circle cx="72.53" cy="47.21" r="3.33"/> 
            <circle cx="78.74" cy="52.91" r="3.33"/> 
            <circle cx="104.71" cy="85.49" r="3.33"/> 
            <circle cx="130.68" cy="118.08" r="3.33"/> 
            <circle cx="100.59" cy="78.13" r="3.33"/> 
            <circle cx="126.57" cy="110.71" r="3.33"/> 
            <circle cx="96.46" cy="70.79" r="3.33"/> 
            <circle cx="92.33" cy="63.46" r="3.33"/> 
            <circle cx="122.45" cy="103.37" r="3.33"/> 
            <circle cx="118.33" cy="96.05" r="3.33"/> 
            <circle cx="79.91" cy="41.56" r="3.33"/> 
            <circle cx="90.47" cy="54.50" r="3.33"/> 
            <circle cx="86.34" cy="47.21" r="3.33"/> 
            <circle cx="116.54" cy="87.11" r="3.33"/> 
            <circle cx="112.42" cy="79.83" r="3.33"/> 
            <circle cx="108.29" cy="72.57" r="3.33"/> 
            <circle cx="104.16" cy="65.31" r="3.33"/> 
            <circle cx="100.02" cy="58.05" r="3.33"/> 
            <circle cx="87.59" cy="36.32" r="3.33"/> 
            <circle cx="98.41" cy="49.19" r="3.33"/> 
            <circle cx="94.27" cy="41.96" r="3.33"/> 
            <circle cx="138.60" cy="112.52" r="3.33"/> 
            <circle cx="134.46" cy="105.29" r="3.33"/> 
            <circle cx="130.32" cy="98.05" r="3.33"/> 
            <circle cx="126.17" cy="90.82" r="3.33"/> 
            <circle cx="95.55" cy="31.50" r="3.33"/> 
            <circle cx="108.05" cy="53.15" r="3.33"/> 
            <circle cx="112.21" cy="60.37" r="3.33"/> 
            <circle cx="116.38" cy="67.59" r="3.33"/> 
            <circle cx="120.55" cy="74.80" r="3.33"/> 
            <circle cx="124.71" cy="82.02" r="3.33"/> 
            <circle cx="102.48" cy="37.18" r="3.33"/> 
            <circle cx="106.67" cy="44.39" r="3.33"/> 
            <circle cx="103.75" cy="27.13" r="3.33"/> 
            <circle cx="134.45" cy="86.32" r="3.33"/> 
            <circle cx="116.37" cy="48.78" r="3.33"/> 
            <circle cx="120.59" cy="56.00" r="3.33"/> 
            <circle cx="138.67" cy="93.54" r="3.33"/> 
            <circle cx="124.82" cy="63.21" r="3.33"/> 
            <circle cx="110.97" cy="32.89" r="3.33"/> 
            <circle cx="142.90" cy="100.76" r="3.33"/> 
            <circle cx="129.05" cy="70.43" r="3.33"/> 
            <circle cx="115.20" cy="40.11" r="3.33"/> 
            <circle cx="133.30" cy="77.65" r="3.33"/> 
            <circle cx="147.14" cy="107.98" r="3.33"/> 
            <circle cx="112.18" cy="23.21" r="3.33"/> 
            <circle cx="124.96" cy="44.95" r="3.33"/> 
            <circle cx="119.69" cy="29.11" r="3.33"/> 
            <circle cx="129.25" cy="52.21" r="3.33"/> 
            <circle cx="123.99" cy="36.37" r="3.33"/> 
            <circle cx="133.55" cy="59.47" r="3.33"/> 
            <circle cx="143.10" cy="82.59" r="3.33"/> 
            <circle cx="137.87" cy="66.75" r="3.33"/> 
            <circle cx="120.81" cy="19.75" r="3.33"/> 
            <circle cx="147.42" cy="89.87" r="3.33"/> 
            <circle cx="142.22" cy="74.03" r="3.33"/> 
            <circle cx="151.78" cy="97.18" r="3.33"/> 
            <circle cx="133.78" cy="41.68" r="3.33"/> 
            <circle cx="128.61" cy="25.84" r="3.33"/> 
            <circle cx="132.99" cy="33.17" r="3.33"/> 
            <circle cx="138.14" cy="49.03" r="3.33"/> 
        </g>
        <g style="fill:#F81E1E; stroke-width:0.00; stroke:#000000" 
           id="1_Party-2"> 
            <title>Party 2</title>            <circle cx="156.17" cy="104.50" r="3.33"/> 
            <circle cx="129.62" cy="16.76" r="3.33"/> 
            <circle cx="142.53" cy="56.39" r="3.33"/> 
            <circle cx="146.96" cy="63.77" r="3.33"/> 
            <circle cx="152.06" cy="79.65" r="3.33"/> 
            <circle cx="137.71" cy="23.10" r="3.33"/> 
            <circle cx="142.79" cy="38.99" r="3.33"/> 
            <circle cx="151.42" cy="71.19" r="3.33"/> 
            <circle cx="142.18" cy="30.55" r="3.33"/> 
            <circle cx="156.50" cy="87.09" r="3.33"/> 
            <circle cx="138.57" cy="14.27" r="3.33"/> 
            <circle cx="147.24" cy="46.46" r="3.33"/> 
            <circle cx="151.72" cy="53.97" r="3.33"/> 
            <circle cx="160.99" cy="94.59" r="3.33"/> 
            <circle cx="146.96" cy="20.89" r="3.33"/> 
            <circle cx="156.25" cy="61.52" r="3.33"/> 
            <circle cx="151.96" cy="36.89" r="3.33"/> 
            <circle cx="147.65" cy="12.26" r="3.33"/> 
            <circle cx="151.51" cy="28.49" r="3.33"/> 
            <circle cx="165.56" cy="102.16" r="3.33"/> 
            <circle cx="161.24" cy="77.54" r="3.33"/> 
            <circle cx="156.49" cy="44.53" r="3.33"/> 
            <circle cx="160.83" cy="69.15" r="3.33"/> 
            <circle cx="165.81" cy="85.22" r="3.33"/> 
            <circle cx="161.06" cy="52.23" r="3.33"/> 
            <circle cx="156.32" cy="19.23" r="3.33"/> 
            <circle cx="156.83" cy="10.75" r="3.33"/> 
            <circle cx="161.24" cy="35.38" r="3.33"/> 
            <circle cx="160.94" cy="27.02" r="3.33"/> 
            <circle cx="165.69" cy="60.02" r="3.33"/> 
            <circle cx="170.44" cy="93.02" r="3.33"/> 
            <circle cx="165.85" cy="43.23" r="3.33"/> 
            <circle cx="170.58" cy="76.26" r="3.33"/> 
            <circle cx="165.76" cy="18.13" r="3.33"/> 
            <circle cx="170.38" cy="67.91" r="3.33"/> 
            <circle cx="166.07" cy="9.74" r="3.33"/> 
            <circle cx="170.51" cy="51.18" r="3.33"/> 
            <circle cx="170.60" cy="34.47" r="3.33"/> 
            <circle cx="170.45" cy="26.13" r="3.33"/> 
            <circle cx="175.16" cy="100.98" r="3.33"/> 
            <circle cx="175.25" cy="84.28" r="3.33"/> 
            <circle cx="175.22" cy="59.26" r="3.33"/> 
            <circle cx="175.28" cy="42.58" r="3.33"/> 
            <circle cx="175.25" cy="17.57" r="3.33"/> 
            <circle cx="175.35" cy="9.23" r="3.33"/> 
            <circle cx="180.00" cy="34.17" r="3.33"/> 
            <circle cx="180.00" cy="50.83" r="3.33"/> 
            <circle cx="180.00" cy="67.50" r="3.33"/> 
            <circle cx="180.00" cy="75.83" r="3.33"/> 
            <circle cx="180.00" cy="92.50" r="3.33"/> 
            <circle cx="180.00" cy="25.83" r="3.33"/> 
            <circle cx="184.65" cy="9.23" r="3.33"/> 
            <circle cx="184.75" cy="17.57" r="3.33"/> 
            <circle cx="184.72" cy="42.58" r="3.33"/> 
            <circle cx="184.78" cy="59.26" r="3.33"/> 
            <circle cx="184.75" cy="84.28" r="3.33"/> 
            <circle cx="184.84" cy="100.98" r="3.33"/> 
            <circle cx="189.55" cy="26.13" r="3.33"/> 
            <circle cx="189.40" cy="34.47" r="3.33"/> 
            <circle cx="189.49" cy="51.18" r="3.33"/> 
            <circle cx="193.93" cy="9.74" r="3.33"/> 
            <circle cx="189.62" cy="67.91" r="3.33"/> 
            <circle cx="194.24" cy="18.13" r="3.33"/> 
            <circle cx="189.42" cy="76.26" r="3.33"/> 
            <circle cx="194.15" cy="43.23" r="3.33"/> 
            <circle cx="189.56" cy="93.02" r="3.33"/> 
            <circle cx="194.31" cy="60.02" r="3.33"/> 
            <circle cx="199.06" cy="27.02" r="3.33"/> 
            <circle cx="198.76" cy="35.38" r="3.33"/> 
            <circle cx="203.17" cy="10.75" r="3.33"/> 
            <circle cx="203.68" cy="19.23" r="3.33"/> 
            <circle cx="198.94" cy="52.23" r="3.33"/> 
            <circle cx="194.19" cy="85.22" r="3.33"/> 
            <circle cx="199.17" cy="69.15" r="3.33"/> 
            <circle cx="203.51" cy="44.53" r="3.33"/> 
            <circle cx="198.76" cy="77.54" r="3.33"/> 
            <circle cx="194.44" cy="102.16" r="3.33"/> 
            <circle cx="208.49" cy="28.49" r="3.33"/> 
            <circle cx="212.35" cy="12.26" r="3.33"/> 
            <circle cx="208.04" cy="36.89" r="3.33"/> 
            <circle cx="203.75" cy="61.52" r="3.33"/> 
            <circle cx="213.04" cy="20.89" r="3.33"/> 
            <circle cx="199.01" cy="94.59" r="3.33"/> 
            <circle cx="208.28" cy="53.97" r="3.33"/> 
            <circle cx="212.76" cy="46.46" r="3.33"/> 
            <circle cx="221.43" cy="14.27" r="3.33"/> 
            <circle cx="203.50" cy="87.09" r="3.33"/> 
            <circle cx="217.82" cy="30.55" r="3.33"/> 
            <circle cx="208.58" cy="71.19" r="3.33"/> 
            <circle cx="217.21" cy="38.99" r="3.33"/> 
            <circle cx="222.29" cy="23.10" r="3.33"/> 
            <circle cx="207.94" cy="79.65" r="3.33"/> 
            <circle cx="213.04" cy="63.77" r="3.33"/> 
            <circle cx="217.47" cy="56.39" r="3.33"/> 
            <circle cx="230.38" cy="16.76" r="3.33"/> 
            <circle cx="203.83" cy="104.50" r="3.33"/> 
            <circle cx="221.86" cy="49.03" r="3.33"/> 
            <circle cx="227.01" cy="33.17" r="3.33"/> 
            <circle cx="231.39" cy="25.84" r="3.33"/> 
            <circle cx="226.22" cy="41.68" r="3.33"/> 
            <circle cx="208.22" cy="97.18" r="3.33"/> 
            <circle cx="217.78" cy="74.03" r="3.33"/> 
            <circle cx="212.58" cy="89.87" r="3.33"/> 
            <circle cx="239.19" cy="19.75" r="3.33"/> 
            <circle cx="222.13" cy="66.75" r="3.33"/> 
            <circle cx="216.90" cy="82.59" r="3.33"/> 
            <circle cx="226.45" cy="59.47" r="3.33"/> 
            <circle cx="236.01" cy="36.37" r="3.33"/> 
            <circle cx="230.75" cy="52.21" r="3.33"/> 
            <circle cx="240.31" cy="29.11" r="3.33"/> 
            <circle cx="235.04" cy="44.95" r="3.33"/> 
            <circle cx="247.82" cy="23.21" r="3.33"/> 
            <circle cx="212.86" cy="107.98" r="3.33"/> 
            <circle cx="226.70" cy="77.65" r="3.33"/> 
            <circle cx="244.80" cy="40.11" r="3.33"/> 
            <circle cx="230.95" cy="70.43" r="3.33"/> 
            <circle cx="217.10" cy="100.76" r="3.33"/> 
            <circle cx="249.03" cy="32.89" r="3.33"/> 
            <circle cx="235.18" cy="63.21" r="3.33"/> 
            <circle cx="221.33" cy="93.54" r="3.33"/> 
            <circle cx="239.41" cy="56.00" r="3.33"/> 
            <circle cx="243.63" cy="48.78" r="3.33"/> 
            <circle cx="225.55" cy="86.32" r="3.33"/> 
            <circle cx="256.25" cy="27.13" r="3.33"/> 
            <circle cx="253.33" cy="44.39" r="3.33"/> 
            <circle cx="257.52" cy="37.18" r="3.33"/> 
            <circle cx="235.29" cy="82.02" r="3.33"/> 
            <circle cx="239.45" cy="74.80" r="3.33"/> 
            <circle cx="243.62" cy="67.59" r="3.33"/> 
            <circle cx="247.79" cy="60.37" r="3.33"/> 
            <circle cx="251.95" cy="53.15" r="3.33"/> 
            <circle cx="264.45" cy="31.50" r="3.33"/> 
            <circle cx="233.83" cy="90.82" r="3.33"/> 
            <circle cx="229.68" cy="98.05" r="3.33"/> 
            <circle cx="225.54" cy="105.29" r="3.33"/> 
            <circle cx="221.40" cy="112.52" r="3.33"/> 
            <circle cx="265.73" cy="41.96" r="3.33"/> 
            <circle cx="261.59" cy="49.19" r="3.33"/> 
            <circle cx="272.41" cy="36.32" r="3.33"/> 
            <circle cx="259.98" cy="58.05" r="3.33"/> 
            <circle cx="255.84" cy="65.31" r="3.33"/> 
            <circle cx="251.71" cy="72.57" r="3.33"/> 
            <circle cx="247.58" cy="79.83" r="3.33"/> 
            <circle cx="243.46" cy="87.11" r="3.33"/> 
            <circle cx="273.66" cy="47.21" r="3.33"/> 
            <circle cx="269.53" cy="54.50" r="3.33"/> 
            <circle cx="280.09" cy="41.56" r="3.33"/> 
            <circle cx="241.67" cy="96.05" r="3.33"/> 
            <circle cx="237.55" cy="103.37" r="3.33"/> 
            <circle cx="267.67" cy="63.46" r="3.33"/> 
            <circle cx="263.54" cy="70.79" r="3.33"/> 
            <circle cx="233.43" cy="110.71" r="3.33"/> 
            <circle cx="259.41" cy="78.13" r="3.33"/> 
            <circle cx="229.32" cy="118.08" r="3.33"/> 
            <circle cx="255.29" cy="85.49" r="3.33"/> 
            <circle cx="281.26" cy="52.91" r="3.33"/> 
            <circle cx="287.47" cy="47.21" r="3.33"/> 
        </g>
        <g style="fill:#2340BB; stroke-width:0.00; stroke:#000000" 
           id="2_Party-3"> 
            <title>Party 3</title>            <circle cx="277.14" cy="60.28" r="3.33"/> 
            <circle cx="251.17" cy="92.88" r="3.33"/> 
            <circle cx="275.00" cy="69.36" r="3.33"/> 
            <circle cx="270.84" cy="76.78" r="3.33"/> 
            <circle cx="249.01" cy="101.97" r="3.33"/> 
            <circle cx="288.52" cy="59.05" r="3.33"/> 
            <circle cx="294.54" cy="53.25" r="3.33"/> 
            <circle cx="266.69" cy="84.24" r="3.33"/> 
            <circle cx="244.85" cy="109.44" r="3.33"/> 
            <circle cx="284.36" cy="66.53" r="3.33"/> 
            <circle cx="262.53" cy="91.74" r="3.33"/> 
            <circle cx="240.68" cy="116.96" r="3.33"/> 
            <circle cx="258.36" cy="99.28" r="3.33"/> 
            <circle cx="281.93" cy="75.71" r="3.33"/> 
            <circle cx="301.26" cy="59.67" r="3.33"/> 
            <circle cx="295.41" cy="65.60" r="3.33"/> 
            <circle cx="277.72" cy="83.27" r="3.33"/> 
            <circle cx="236.51" cy="124.56" r="3.33"/> 
            <circle cx="291.19" cy="73.21" r="3.33"/> 
            <circle cx="273.49" cy="90.87" r="3.33"/> 
            <circle cx="255.78" cy="108.53" r="3.33"/> 
            <circle cx="269.25" cy="98.54" r="3.33"/> 
            <circle cx="288.44" cy="82.50" r="3.33"/> 
            <circle cx="251.51" cy="116.20" r="3.33"/> 
            <circle cx="307.63" cy="66.44" r="3.33"/> 
            <circle cx="301.90" cy="72.54" r="3.33"/> 
            <circle cx="264.98" cy="106.28" r="3.33"/> 
            <circle cx="284.13" cy="90.21" r="3.33"/> 
            <circle cx="297.59" cy="80.30" r="3.33"/> 
            <circle cx="247.21" cy="123.97" r="3.33"/> 
            <circle cx="279.79" cy="97.99" r="3.33"/> 
            <circle cx="313.62" cy="73.56" r="3.33"/> 
            <circle cx="294.50" cy="89.69" r="3.33"/> 
            <circle cx="261.93" cy="115.67" r="3.33"/> 
            <circle cx="307.97" cy="79.85" r="3.33"/> 
            <circle cx="275.41" cy="105.85" r="3.33"/> 
            <circle cx="242.85" cy="131.86" r="3.33"/> 
            <circle cx="290.05" cy="97.57" r="3.33"/> 
            <circle cx="303.54" cy="87.77" r="3.33"/> 
            <circle cx="257.47" cy="123.59" r="3.33"/> 
            <circle cx="270.97" cy="113.81" r="3.33"/> 
            <circle cx="319.21" cy="80.98" r="3.33"/> 
            <circle cx="285.55" cy="105.54" r="3.33"/> 
            <circle cx="313.61" cy="87.51" r="3.33"/> 
            <circle cx="300.09" cy="97.26" r="3.33"/> 
            <circle cx="252.93" cy="131.65" r="3.33"/> 
            <circle cx="280.97" cy="113.62" r="3.33"/> 
            <circle cx="309.01" cy="95.60" r="3.33"/> 
            <circle cx="267.41" cy="123.34" r="3.33"/> 
            <circle cx="295.45" cy="105.32" r="3.33"/> 
            <circle cx="324.39" cy="88.70" r="3.33"/> 
            <circle cx="318.79" cy="95.48" r="3.33"/> 
            <circle cx="276.30" cy="121.84" r="3.33"/> 
            <circle cx="290.73" cy="113.50" r="3.33"/> 
            <circle cx="305.17" cy="105.17" r="3.33"/> 
            <circle cx="248.25" cy="139.89" r="3.33"/> 
            <circle cx="262.67" cy="131.53" r="3.33"/> 
            <circle cx="313.99" cy="103.75" r="3.33"/> 
            <circle cx="329.14" cy="96.69" r="3.33"/> 
            <circle cx="300.31" cy="113.43" r="3.33"/> 
            <circle cx="285.90" cy="121.81" r="3.33"/> 
            <circle cx="323.49" cy="103.74" r="3.33"/> 
            <circle cx="272.17" cy="131.48" r="3.33"/> 
            <circle cx="257.77" cy="139.90" r="3.33"/> 
            <circle cx="309.73" cy="113.39" r="3.33"/> 
            <circle cx="295.32" cy="121.82" r="3.33"/> 
            <circle cx="280.92" cy="130.28" r="3.33"/> 
            <circle cx="318.46" cy="112.20" r="3.33"/> 
            <circle cx="333.46" cy="104.93" r="3.33"/> 
            <circle cx="304.60" cy="121.85" r="3.33"/> 
            <circle cx="267.06" cy="139.95" r="3.33"/> 
            <circle cx="327.71" cy="112.26" r="3.33"/> 
            <circle cx="290.17" cy="130.37" r="3.33"/> 
            <circle cx="313.76" cy="121.89" r="3.33"/> 
            <circle cx="252.64" cy="148.52" r="3.33"/> 
            <circle cx="337.31" cy="113.39" r="3.33"/> 
            <circle cx="276.18" cy="140.01" r="3.33"/> 
            <circle cx="299.29" cy="130.46" r="3.33"/> 
            <circle cx="322.39" cy="120.90" r="3.33"/> 
            <circle cx="284.80" cy="139.10" r="3.33"/> 
            <circle cx="331.41" cy="121.01" r="3.33"/> 
            <circle cx="308.30" cy="130.54" r="3.33"/> 
            <circle cx="261.69" cy="148.64" r="3.33"/> 
            <circle cx="340.70" cy="122.05" r="3.33"/> 
            <circle cx="317.22" cy="130.63" r="3.33"/> 
            <circle cx="293.75" cy="139.23" r="3.33"/> 
            <circle cx="270.60" cy="148.76" r="3.33"/> 
            <circle cx="325.78" cy="129.83" r="3.33"/> 
            <circle cx="302.61" cy="139.36" r="3.33"/> 
            <circle cx="334.60" cy="129.96" r="3.33"/> 
            <circle cx="279.40" cy="148.86" r="3.33"/> 
            <circle cx="311.39" cy="139.47" r="3.33"/> 
            <circle cx="343.62" cy="130.88" r="3.33"/> 
            <circle cx="255.94" cy="157.61" r="3.33"/> 
            <circle cx="287.91" cy="148.21" r="3.33"/> 
            <circle cx="320.12" cy="139.58" r="3.33"/> 
            <circle cx="328.60" cy="138.95" r="3.33"/> 
            <circle cx="296.62" cy="148.35" r="3.33"/> 
            <circle cx="264.63" cy="157.76" r="3.33"/> 
            <circle cx="337.27" cy="139.09" r="3.33"/> 
            <circle cx="305.26" cy="148.48" r="3.33"/> 
            <circle cx="346.05" cy="139.85" r="3.33"/> 
            <circle cx="273.24" cy="157.87" r="3.33"/> 
            <circle cx="313.87" cy="148.59" r="3.33"/> 
            <circle cx="322.43" cy="148.69" r="3.33"/> 
            <circle cx="281.81" cy="157.98" r="3.33"/> 
            <circle cx="330.86" cy="148.24" r="3.33"/> 
            <circle cx="290.24" cy="157.55" r="3.33"/> 
            <circle cx="339.39" cy="148.35" r="3.33"/> 
            <circle cx="298.75" cy="157.67" r="3.33"/> 
            <circle cx="347.99" cy="148.94" r="3.33"/> 
            <circle cx="307.24" cy="157.77" r="3.33"/> 
            <circle cx="258.10" cy="167.04" r="3.33"/> 
            <circle cx="315.71" cy="157.86" r="3.33"/> 
            <circle cx="324.16" cy="157.94" r="3.33"/> 
            <circle cx="266.55" cy="167.13" r="3.33"/> 
            <circle cx="332.54" cy="157.64" r="3.33"/> 
            <circle cx="340.97" cy="157.72" r="3.33"/> 
            <circle cx="274.98" cy="167.21" r="3.33"/> 
            <circle cx="349.43" cy="158.13" r="3.33"/> 
            <circle cx="283.39" cy="167.27" r="3.33"/> 
            <circle cx="291.75" cy="167.06" r="3.33"/> 
            <circle cx="300.15" cy="167.13" r="3.33"/> 
            <circle cx="308.53" cy="167.19" r="3.33"/> 
            <circle cx="316.91" cy="167.23" r="3.33"/> 
            <circle cx="325.28" cy="167.28" r="3.33"/> 
            <circle cx="333.63" cy="167.13" r="3.33"/> 
            <circle cx="341.99" cy="167.17" r="3.33"/> 
            <circle cx="350.37" cy="167.38" r="3.33"/> 
            <circle cx="259.10" cy="176.67" r="3.33"/> 
            <circle cx="267.44" cy="176.67" r="3.33"/> 
            <circle cx="275.78" cy="176.67" r="3.33"/> 
            <circle cx="284.11" cy="176.67" r="3.33"/> 
            <circle cx="292.45" cy="176.67" r="3.33"/> 
            <circle cx="300.79" cy="176.67" r="3.33"/> 
            <circle cx="309.12" cy="176.67" r="3.33"/> 
            <circle cx="317.46" cy="176.67" r="3.33"/> 
            <circle cx="325.80" cy="176.67" r="3.33"/> 
            <circle cx="334.13" cy="176.67" r="3.33"/> 
            <circle cx="342.47" cy="176.67" r="3.33"/> 
            <circle cx="350.80" cy="176.67" r="3.33"/> 
        </g>
    </g>
</svg>
